<?xml version="1.0" standalone="no"?>
<!DOCTYPE svg PUBLIC "-//W3C//DTD SVG 20010904//EN"
 "http://www.w3.org/TR/2001/REC-SVG-20010904/DTD/svg10.dtd">
<svg version="1.0" xmlns="http://www.w3.org/2000/svg"
 width="1024.000000pt" height="1024.000000pt" viewBox="0 0 1024.000000 1024.000000"
 preserveAspectRatio="xMidYMid meet">

<g transform="translate(0.000000,1024.000000) scale(0.100000,-0.100000)"
fill="#3b82f6" stroke="none">
<path d="M3455 7659 c-189 -11 -303 -39 -446 -109 -195 -97 -248 -140 -394
-322 -15 -18 -103 -189 -116 -223 -24 -68 -28 -82 -59 -243 -14 -73 -14 -3171
0 -3244 6 -29 15 -78 21 -108 18 -92 57 -207 92 -270 11 -19 25 -45 32 -57 44
-83 196 -245 286 -305 101 -67 227 -122 344 -152 181 -45 189 -46 1995 -42
1858 3 1750 0 1928 57 70 23 195 85 244 121 40 30 238 228 238 239 0 4 13 27
29 51 54 81 100 197 116 293 29 173 30 268 28 1815 -2 1523 -3 1578 -22 1660
-43 186 -84 292 -156 398 -152 227 -393 380 -673 427 -73 12 -346 15 -1727 17
-902 2 -1694 0 -1760 -3z m1878 -1051 c21 -6 52 -24 67 -39 52 -52 54 -82 42
-513 -13 -425 -10 -458 34 -479 22 -9 33 -7 71 13 121 64 385 414 568 752 33
62 73 121 88 132 27 20 42 21 367 24 l338 3 26 -32 c58 -69 16 -141 -443 -749
-217 -287 -246 -329 -246 -362 0 -41 -15 -20 227 -290 216 -240 435 -507 461
-558 28 -58 29 -120 2 -150 -41 -47 -66 -50 -374 -50 -379 0 -377 -1 -521 180
-115 143 -275 322 -302 336 -34 18 -73 12 -82 -12 -3 -8 1 -57 9 -107 19 -119
19 -210 -1 -385 -16 -135 -16 -149 1 -253 20 -126 16 -188 -16 -251 -47 -95
-110 -138 -247 -168 -89 -20 -121 -37 -156 -84 -19 -25 -21 -45 -26 -236 -5
-191 -7 -211 -26 -236 -38 -51 -68 -66 -141 -71 -67 -5 -70 -4 -92 23 -22 27
-23 35 -17 125 8 117 -5 139 -74 129 -25 -4 -30 -21 -30 -126 0 -87 -3 -105
-21 -128 -17 -22 -28 -26 -70 -26 -40 0 -55 5 -74 25 -23 22 -25 31 -25 126 0
81 -3 106 -17 121 -21 24 -48 23 -73 -2 -17 -17 -20 -33 -20 -125 0 -92 -3
-108 -20 -125 -28 -28 -98 -27 -134 1 -25 20 -26 24 -26 125 0 91 -3 107 -20
124 -24 24 -38 25 -67 5 -19 -13 -22 -26 -25 -124 -4 -141 -14 -155 -105 -149
-55 3 -67 8 -97 37 -52 51 -60 94 -53 300 8 239 3 248 -175 290 -150 35 -229
86 -273 176 -17 33 -19 56 -16 135 6 161 5 308 -3 485 -10 200 5 342 55 532
17 65 34 128 36 139 3 14 -24 81 -75 185 -151 308 -262 674 -303 1004 -14 113
-8 164 22 191 19 17 42 19 242 22 234 3 367 -7 417 -33 41 -21 57 -57 90 -203
40 -177 73 -286 119 -391 76 -178 158 -291 252 -352 44 -28 62 -33 128 -37 67
-3 80 -1 111 20 19 13 43 39 53 59 27 56 40 230 34 454 -7 229 -20 341 -48
404 -34 77 -19 149 35 171 34 14 592 12 639 -2z"/>
<path d="M4879 4700 c-45 -13 -79 -42 -102 -84 -30 -57 -29 -204 1 -288 64
-176 214 -291 399 -305 98 -8 156 9 209 62 24 24 48 62 58 91 37 105 30 267
-15 355 -24 48 -81 95 -146 119 -124 46 -332 72 -404 50z"/>
<path d="M4081 4689 c-87 -17 -200 -61 -245 -94 -29 -23 -54 -55 -73 -92 -26
-54 -28 -66 -28 -178 0 -114 1 -123 29 -173 50 -89 123 -131 233 -132 161 -1
322 103 394 255 82 172 50 362 -68 411 -36 16 -172 17 -242 3z"/>
<path d="M4532 4128 c-11 -14 -62 -123 -118 -251 -56 -129 -40 -197 48 -197
40 0 101 43 113 81 9 27 17 24 43 -16 12 -20 42 -45 67 -57 42 -20 45 -21 70
-4 41 27 51 59 36 114 -16 60 -124 291 -149 320 -23 25 -92 31 -110 10z"/>
</g>
</svg>
